<svg width="32" height="36" viewBox="0 0 32 36" fill="none" xmlns="http://www.w3.org/2000/svg">
<path d="M10.8071 12.375H7.00037C4.90017 12.375 3.84929 12.375 3.04712 12.7837C2.34151 13.1433 1.76825 13.7165 1.40873 14.4221C1 15.2243 1 16.2752 1 18.3754V28.8754C1 30.9756 1 32.0251 1.40873 32.8273C1.76825 33.5329 2.34151 34.1072 3.04712 34.4667C3.8485 34.875 4.89816 34.875 6.99426 34.875H25.0058C27.1019 34.875 28.15 34.875 28.9514 34.4667C29.657 34.1071 30.2321 33.5329 30.5917 32.8273C31 32.0259 31 30.9778 31 28.8817V18.3692C31 16.2731 31 15.2235 30.5917 14.4221C30.2321 13.7165 29.657 13.1432 28.9514 12.7837C28.1492 12.375 27.1006 12.375 25.0004 12.375H21.1917M10.8071 12.375H21.1917M10.8071 12.375C10.5682 12.375 10.375 12.1813 10.375 11.9423V6.75C10.375 3.6434 12.8934 1.125 16 1.125C19.1066 1.125 21.625 3.6434 21.625 6.75V11.9423C21.625 12.1813 21.4307 12.375 21.1917 12.375" stroke="#262C33" stroke-width="2" stroke-linecap="round" stroke-linejoin="round"/>
</svg>
